<mxfile host="app.diagrams.net" modified="2024-07-13T17:55:21.173Z" agent="Mozilla/5.0 (Windows NT 10.0; Win64; x64) AppleWebKit/537.36 (KHTML, like Gecko) Chrome/126.0.0.0 Safari/537.36 Edg/126.0.0.0" version="24.5.5" etag="81IXCP88KK6bVSUhWso1" type="github">
  <diagram name="Page-1" id="bIUZXxmb8o0tnjRMu1ss">
    <mxGraphModel>
      <root>
        <mxCell id="0" />
        <mxCell id="1" parent="0" />
      </root>
    </mxGraphModel>
  </diagram>
</mxfile>
